<svg xmlns="http://www.w3.org/2000/svg" xmlns:xlink="http://www.w3.org/1999/xlink" version="1.1" width="612" height="612" style="enable-background:new 0 0 612 612;" xml:space="preserve"><rect id="backgroundrect" width="100%" height="100%" x="0" y="0" fill="none" stroke="none"/>
















<g class="currentLayer" style=""><title>Layer 1</title><g id="svg_1" class="selected" fill-opacity="1" fill="#507ce8">
	<g id="_x36__30_" fill="#507ce8">
		<g id="svg_2" fill="#507ce8">
			<path d="M331.685,425.378c-7.478,7.479-7.478,19.584,0,27.043c7.479,7.478,19.584,7.478,27.043,0l131.943-131.962     c3.979-3.979,5.681-9.276,5.412-14.479c0.269-5.221-1.434-10.499-5.412-14.477L358.728,159.56     c-7.459-7.478-19.584-7.478-27.043,0c-7.478,7.478-7.478,19.584,0,27.042l100.272,100.272H19.125C8.568,286.875,0,295.443,0,306     c0,10.557,8.568,19.125,19.125,19.125h412.832L331.685,425.378z M535.5,38.25H153c-42.247,0-76.5,34.253-76.5,76.5v76.5h38.25     v-76.5c0-21.114,17.117-38.25,38.25-38.25h382.5c21.133,0,38.25,17.136,38.25,38.25v382.5c0,21.114-17.117,38.25-38.25,38.25H153     c-21.133,0-38.25-17.117-38.25-38.25v-76.5H76.5v76.5c0,42.247,34.253,76.5,76.5,76.5h382.5c42.247,0,76.5-34.253,76.5-76.5     v-382.5C612,72.503,577.747,38.25,535.5,38.25z" id="svg_3" fill="#507ce8"/>
		</g>
	</g>
</g><g id="svg_4">
</g><g id="svg_5">
</g><g id="svg_6">
</g><g id="svg_7">
</g><g id="svg_8">
</g><g id="svg_9">
</g><g id="svg_10">
</g><g id="svg_11">
</g><g id="svg_12">
</g><g id="svg_13">
</g><g id="svg_14">
</g><g id="svg_15">
</g><g id="svg_16">
</g><g id="svg_17">
</g><g id="svg_18">
</g></g></svg>